<svg width="30" height="30" viewBox="0 0 30 30" fill="none" xmlns="http://www.w3.org/2000/svg">
<path d="M15.0466 7.91308C21.2229 3.11819 18.0531 0 18.0531 0C18.5248 4.95692 12.9497 6.12734 11.4552 9.53362C10.4355 11.858 12.1536 13.8931 15.0445 16.4582C14.789 15.8901 14.3947 15.3381 13.9957 14.7792C12.6346 12.8731 11.2167 10.8874 15.0466 7.91308Z" fill="#E76F00"/>
<path d="M16.0326 17.5097C16.0326 17.5097 17.8908 16.0105 16.4193 14.3445C11.431 8.69236 21.875 6.12733 21.875 6.12733C15.4985 9.19921 16.4504 11.0226 18.0532 13.2377C19.7692 15.6129 16.0326 17.5097 16.0326 17.5097Z" fill="#E76F00"/>
<path d="M21.5034 21.9803C27.2272 19.0554 24.5808 16.2448 22.7336 16.6235C22.2808 16.7161 22.079 16.7964 22.079 16.7964C22.079 16.7964 22.2471 16.5375 22.5681 16.4254C26.2223 15.1621 29.0327 20.1515 21.3884 22.1276C21.3884 22.1276 21.477 22.0498 21.5034 21.9803Z" fill="#5382A1"/>
<path d="M9.59343 18.2783C6.0123 17.8081 11.557 16.513 11.557 16.513C11.557 16.513 9.40378 16.3702 6.75555 17.629C3.62416 19.1186 14.5013 19.7961 20.1319 18.3398C20.7172 17.9467 21.5263 17.6061 21.5263 17.6061C21.5263 17.6061 19.2222 18.0107 16.9276 18.2011C14.1199 18.4324 11.1055 18.4775 9.59343 18.2783Z" fill="#5382A1"/>
<path d="M10.956 21.0711C8.95898 20.868 10.2666 19.9162 10.2666 19.9162C5.09905 21.6027 13.1417 23.5153 20.3624 21.4389C19.5949 21.1729 19.1068 20.6862 19.1068 20.6862C15.5778 21.3545 13.5384 21.3331 10.956 21.0711Z" fill="#5382A1"/>
<path d="M11.8261 24.0929C9.83062 23.8674 10.9964 23.2007 10.9964 23.2007C6.30557 24.4896 13.8496 27.1524 19.8218 24.6354C18.8437 24.2613 18.1432 23.8295 18.1432 23.8295C15.4792 24.3252 14.2435 24.3641 11.8261 24.0929Z" fill="#5382A1"/>
<path d="M24.3175 25.6301C24.3175 25.6301 25.1802 26.3291 23.3674 26.8699C19.9201 27.8968 9.01962 28.2069 5.99151 26.9109C4.90298 26.4452 6.94428 25.799 7.58639 25.6633C8.25606 25.5205 8.63874 25.5472 8.63874 25.5472C7.42819 24.7086 0.814209 27.1938 5.27917 27.9055C17.4558 29.8474 27.476 27.031 24.3175 25.6301Z" fill="#5382A1"/>
<path d="M26.25 27.1574C26.0502 29.7138 17.6135 30.2515 12.1194 29.9057C8.5353 29.6797 7.81699 29.1148 7.80648 29.1066C11.2368 29.6627 17.0202 29.7639 21.7095 28.8961C25.8659 28.1265 26.25 27.1574 26.25 27.1574Z" fill="#5382A1"/>
</svg>
