<svg width="45" height="45" viewBox="0 0 45 45" fill="none" xmlns="http://www.w3.org/2000/svg">
<path d="M22.4191 11.25C16.707 11.25 17.0634 13.7271 17.0634 13.7271L17.0705 16.2935H22.5211V17.0634H14.9041C14.9041 17.0634 11.25 16.6486 11.25 22.4128C11.25 28.1756 14.4401 27.9717 14.4401 27.9717H16.3441V25.297C16.3441 25.297 16.2415 22.107 19.4836 22.107H24.8892C24.8892 22.107 27.9267 22.1562 27.9267 19.1714V14.2362C27.9267 14.2362 28.388 11.25 22.4191 11.25ZM19.4133 12.9755C19.9554 12.9755 20.3941 13.4142 20.3941 13.9563C20.3941 14.4984 19.9554 14.9372 19.4133 14.9372C19.2844 14.9374 19.1568 14.9121 19.0377 14.8629C18.9186 14.8137 18.8104 14.7414 18.7193 14.6503C18.6282 14.5592 18.5559 14.451 18.5067 14.3319C18.4575 14.2128 18.4322 14.0852 18.4324 13.9563C18.4324 13.4142 18.8712 12.9755 19.4133 12.9755Z" fill="url(#paint0_linear_42_83)"/>
<path d="M22.4508 33.6326C28.163 33.6326 27.8065 31.1555 27.8065 31.1555L27.7995 28.5891H22.3489V27.8191H29.9651C29.9651 27.8191 33.62 28.234 33.62 22.4705C33.62 16.707 30.4299 16.9116 30.4299 16.9116H28.5258V19.5855C28.5258 19.5855 28.6285 22.7756 25.3864 22.7756H19.9807C19.9807 22.7756 16.9432 22.7264 16.9432 25.7112V30.6464C16.9432 30.6464 16.482 33.6326 22.4508 33.6326ZM25.4567 31.9071C25.3278 31.9073 25.2002 31.882 25.0811 31.8328C24.962 31.7836 24.8538 31.7114 24.7627 31.6202C24.6716 31.5291 24.5993 31.4209 24.5501 31.3018C24.5009 31.1827 24.4756 31.0551 24.4758 30.9262C24.4758 30.3848 24.9146 29.9461 25.4567 29.9461C25.9988 29.9461 26.4375 30.3841 26.4375 30.9262C26.4375 31.4691 25.9988 31.9071 25.4567 31.9071Z" fill="url(#paint1_linear_42_83)"/>
<defs>
<linearGradient id="paint0_linear_42_83" x1="13.4121" y1="13.2061" x2="24.5377" y2="24.3689" gradientUnits="userSpaceOnUse">
<stop stop-color="#387EB8"/>
<stop offset="1" stop-color="#366994"/>
</linearGradient>
<linearGradient id="paint1_linear_42_83" x1="20.1263" y1="20.3077" x2="32.0752" y2="31.7552" gradientUnits="userSpaceOnUse">
<stop stop-color="#FFE052"/>
<stop offset="1" stop-color="#FFC331"/>
</linearGradient>
</defs>
</svg>
